<?xml version="1.0" encoding="iso-8859-1"?>
<!-- Generator: Adobe Illustrator 16.0.0, SVG Export Plug-In . SVG Version: 6.00 Build 0)  -->
<!DOCTYPE svg PUBLIC "-//W3C//DTD SVG 1.1//EN" "http://www.w3.org/Graphics/SVG/1.1/DTD/svg11.dtd">
<svg version="1.1" id="Capa_1" xmlns="http://www.w3.org/2000/svg" xmlns:xlink="http://www.w3.org/1999/xlink" x="0px" y="0px"
	 width="612px" height="612px" viewBox="0 0 612 612" style="enable-background:new 0 0 612 612;" xml:space="preserve">
<g>
	<g>
		<path d="M601.518,89.222c-6.962-7.109-15.566-10.776-25.748-10.776H36.224c-10.176,0-18.786,3.667-25.749,10.776
			C3.667,96.185,0,104.795,0,114.677v382.648c0,9.881,3.513,18.639,10.476,25.748c6.815,6.961,15.573,10.48,25.749,10.48H575.77
			c10.182,0,18.939-3.52,25.748-10.48C608.48,515.964,612,507.206,612,497.325V114.677C612,104.795,608.334,96.185,601.518,89.222z
			 M578.766,497.325c0,2.094-0.9,2.994-2.996,2.994H36.224c-1.495,0-3.29-1.795-3.29-2.994V263.181h545.831V497.325z
			 M578.766,178.45H32.935v-63.773c0-1.201,1.795-2.996,3.29-2.996H575.77c2.096,0,2.996,0.901,2.996,2.996V178.45z"/>
		<rect x="439.535" y="325.761" width="71.86" height="72.16"/>
		<path d="M117.071,358.694h257.496c9.281,0,16.467-7.186,16.467-16.467s-7.186-16.467-16.467-16.467H117.071
			c-9.287,0-16.473,7.186-16.473,16.467S107.784,358.694,117.071,358.694z"/>
		<path d="M117.071,432.95H321.87c9.281,0,16.467-7.186,16.467-16.467s-7.186-16.467-16.467-16.467H117.071
			c-9.287,0-16.473,7.186-16.473,16.467S107.784,432.95,117.071,432.95z"/>
	</g>
</g>
<g>
</g>
<g>
</g>
<g>
</g>
<g>
</g>
<g>
</g>
<g>
</g>
<g>
</g>
<g>
</g>
<g>
</g>
<g>
</g>
<g>
</g>
<g>
</g>
<g>
</g>
<g>
</g>
<g>
</g>
</svg>
