<?xml version="1.0" encoding="iso-8859-1"?>
<!-- Generator: Adobe Illustrator 19.0.0, SVG Export Plug-In . SVG Version: 6.00 Build 0)  -->
<svg version="1.1" id="Capa_1" xmlns="http://www.w3.org/2000/svg" xmlns:xlink="http://www.w3.org/1999/xlink" x="0px" y="0px"
	 viewBox="0 0 512 512" style="enable-background:new 0 0 512 512;" xml:space="preserve">
<g>
	<g>
		<path d="M352.4,96.401c-34.848,0-63.199,28.352-63.199,63.2c0,34.848,28.351,63.2,63.199,63.2c34.849,0,63.2-28.352,63.2-63.2
			C415.6,124.753,387.248,96.401,352.4,96.401z M352.4,192.8c-18.306,0-33.199-14.894-33.199-33.2c0-18.306,14.893-33.2,33.199-33.2
			c18.307,0,33.2,14.894,33.2,33.2C385.6,177.907,370.706,192.8,352.4,192.8z"/>
	</g>
</g>
<g>
	<g>
		<path d="M497,0H15C6.716,0,0,6.716,0,15v433.516c0,0,0,0.008,0,0.012V497c0,8.284,6.716,15,15,15h482c8.284,0,15-6.716,15-15
			v-48.276v-0.005V15C512,6.716,505.284,0,497,0z M482,482H30v-29.244l123.85-218.558l125.757,152.976
			c2.564,3.119,6.277,5.072,10.3,5.419c4.022,0.344,8.015-0.943,11.075-3.577l73.754-63.502L482,454.231V482z M482,407.37
			l-93.977-112.772c-2.574-3.089-6.279-5.015-10.286-5.347c-4.01-0.332-7.979,0.96-11.025,3.582l-73.676,63.436L163.155,198.275
			c-3.139-3.817-7.962-5.843-12.879-5.419c-4.924,0.426-9.322,3.249-11.758,7.549L30,391.905V30h452V407.37z"/>
	</g>
</g>
<g>
</g>
<g>
</g>
<g>
</g>
<g>
</g>
<g>
</g>
<g>
</g>
<g>
</g>
<g>
</g>
<g>
</g>
<g>
</g>
<g>
</g>
<g>
</g>
<g>
</g>
<g>
</g>
<g>
</g>
</svg>
