<?xml version="1.0" encoding="iso-8859-1"?>
<!-- Generator: Adobe Illustrator 19.1.0, SVG Export Plug-In . SVG Version: 6.00 Build 0)  -->
<svg version="1.1" id="Capa_1" xmlns="http://www.w3.org/2000/svg" xmlns:xlink="http://www.w3.org/1999/xlink" x="0px" y="0px"
	 viewBox="0 0 314.3 314.3" style="enable-background:new 0 0 314.3 314.3;" xml:space="preserve">
<g>
	<g>
		<path d="M89.764,233.426H86.55l-27.195,25.873L32.16,233.426h-3.214C12.984,233.426,0,246.411,0,262.371v51.711h118.708v-51.711
			C118.708,246.411,105.724,233.426,89.764,233.426z M103.708,299.082H15v-36.711c0-6.822,4.925-12.517,11.407-13.713l32.947,31.347
			l32.947-31.347c6.482,1.196,11.407,6.891,11.407,13.713C103.708,262.371,103.708,299.082,103.708,299.082z"/>
		<path d="M59.354,232.011c20.604,0,37.366-16.762,37.366-37.365s-16.762-37.365-37.366-37.365
			c-20.603,0-37.365,16.762-37.365,37.365S38.751,232.011,59.354,232.011z M59.354,172.281c12.333,0,22.366,10.033,22.366,22.365
			s-10.033,22.365-22.366,22.365c-12.332,0-22.365-10.033-22.365-22.365S47.022,172.281,59.354,172.281z"/>
		<path d="M285.355,76.364h-3.215l-27.195,25.874L227.75,76.364h-3.214c-15.96,0-28.944,12.984-28.944,28.944v51.711H314.3v-51.711
			C314.3,89.348,301.315,76.364,285.355,76.364z M299.3,142.019h-88.708v-36.711c0-6.822,4.925-12.516,11.406-13.713l32.947,31.348
			l32.948-31.348c6.482,1.196,11.407,6.891,11.407,13.713V142.019z"/>
		<path d="M254.946,74.95c20.603,0,37.365-16.762,37.365-37.365S275.549,0.218,254.946,0.218c-20.604,0-37.366,16.763-37.366,37.366
			S234.342,74.95,254.946,74.95z M254.946,15.218c12.332,0,22.365,10.033,22.365,22.366c0,12.332-10.033,22.365-22.365,22.365
			c-12.333,0-22.366-10.033-22.366-22.365C232.58,25.251,242.613,15.218,254.946,15.218z"/>
		<polygon points="206.123,225.457 216.729,236.064 241.971,210.822 241.971,271.728 162.625,271.728 162.625,286.728 
			256.971,286.728 256.971,210.822 282.212,236.064 292.819,225.457 249.471,182.109 		"/>
		<polygon points="51.44,92.019 26.199,66.777 15.592,77.384 58.94,120.732 102.289,77.384 91.682,66.777 66.44,92.019 
			66.44,31.112 145.787,31.112 145.787,16.112 51.44,16.112 		"/>
	</g>
	<g>
	</g>
	<g>
	</g>
	<g>
	</g>
	<g>
	</g>
	<g>
	</g>
	<g>
	</g>
	<g>
	</g>
	<g>
	</g>
	<g>
	</g>
	<g>
	</g>
	<g>
	</g>
	<g>
	</g>
	<g>
	</g>
	<g>
	</g>
	<g>
	</g>
</g>
<g>
</g>
<g>
</g>
<g>
</g>
<g>
</g>
<g>
</g>
<g>
</g>
<g>
</g>
<g>
</g>
<g>
</g>
<g>
</g>
<g>
</g>
<g>
</g>
<g>
</g>
<g>
</g>
<g>
</g>
</svg>
