<?xml version="1.0" encoding="iso-8859-1"?>
<!-- Generator: Adobe Illustrator 19.0.0, SVG Export Plug-In . SVG Version: 6.00 Build 0)  -->
<svg version="1.1" id="Capa_1" xmlns="http://www.w3.org/2000/svg" xmlns:xlink="http://www.w3.org/1999/xlink" x="0px" y="0px"
	 viewBox="0 0 512 512" style="enable-background:new 0 0 512 512;" xml:space="preserve">
<g>
	<g>
		<g>
			<path d="M480,258.88V144c0-8.837-7.163-16-16-16h-16V80c0-17.673-14.327-32-32-32h-48V16c0-8.837-7.163-16-16-16H96
				c-8.837,0-16,7.163-16,16v32H32C14.327,48,0,62.327,0,80v416c0,8.837,7.163,16,16,16h448c8.837,0,16-7.163,16-16V381.12
				c19.132-6.764,31.943-24.828,32-45.12v-32C511.943,283.708,499.132,265.644,480,258.88z M368,80h48v48h-48V80z M112,32h224v96
				h-33.6c-8.792-43.299-51.021-71.272-94.32-62.48c-31.482,6.393-56.087,30.998-62.48,62.48H112V32z M269.28,128h-90.56
				c8.797-25.007,36.201-38.148,61.209-29.351C253.656,103.478,264.451,114.273,269.28,128z M32,80h48v48H32V80z M448,480H32V160
				h416v96H336c-26.51,0-48,21.49-48,48v32c0,26.51,21.49,48,48,48h112V480z M480,336c0,8.837-7.163,16-16,16H336
				c-8.837,0-16-7.163-16-16v-32c0-8.837,7.163-16,16-16h128c8.837,0,16,7.163,16,16V336z"/>
			<rect x="336" y="304" width="32" height="32"/>
		</g>
	</g>
</g>
<g>
</g>
<g>
</g>
<g>
</g>
<g>
</g>
<g>
</g>
<g>
</g>
<g>
</g>
<g>
</g>
<g>
</g>
<g>
</g>
<g>
</g>
<g>
</g>
<g>
</g>
<g>
</g>
<g>
</g>
</svg>
